<?xml version="1.0" standalone="no"?>
<!DOCTYPE svg PUBLIC "-//W3C//DTD SVG 20010904//EN"
 "http://www.w3.org/TR/2001/REC-SVG-20010904/DTD/svg10.dtd">
<svg version="1.0" xmlns="http://www.w3.org/2000/svg"
 width="500.000000pt" height="500.000000pt" viewBox="0 0 500.000000 500.000000"
 preserveAspectRatio="xMidYMid meet">
<metadata>
Created by potrace 1.16, written by Peter Selinger 2001-2019
</metadata>
<g transform="translate(0.000000,500.000000) scale(0.100000,-0.100000)"
fill="#181818" stroke="none">
<path fill="#181818" d="M0 2500 l0 -2500 2500 0 2500 0 0 2500 0 2500 -2500 0 -2500 0 0
-2500z m2164 1164 c13 -5 16 -23 16 -93 l0 -86 258 -257 257 -257 75 -3 75 -3
0 -115 0 -115 -91 -3 -90 -3 -69 -69 c-80 -80 -94 -63 114 -138 l135 -49 78
36 c57 25 84 32 94 26 23 -14 98 -181 90 -200 -9 -25 -173 -98 -205 -92 -25 5
-60 -27 -389 -356 l-362 -362 0 -90 c0 -50 -4 -96 -8 -103 -7 -9 -45 -12 -158
-10 l-149 3 0 150 0 150 58 3 59 3 -4 1015 c-2 670 0 1015 7 1018 16 7 192 7
209 0z"/>
<path fill="#181818" d="M2030 3096 l0 -324 207 -76 207 -77 78 78 78 78 0 90 0 91 -239 232
-239 232 -46 0 -46 0 0 -324z"/>
<path fill="#181818" d="M2030 2447 l0 -242 175 175 c96 96 171 177 167 180 -4 4 -54 24 -112
45 -58 20 -133 48 -167 61 l-63 23 0 -242z"/>
<path fill="#181818" d="M2247 2312 l-217 -217 0 -233 0 -232 53 0 52 0 354 354 354 354 -12
31 c-11 25 -26 34 -94 60 -45 16 -125 45 -178 64 l-96 35 -216 -216z"/>
</g>
</svg>
